<svg width="528" height="1498" viewBox="0 0 528 1498" fill="none" xmlns="http://www.w3.org/2000/svg">
<path fill-rule="evenodd" clip-rule="evenodd" d="M-422.158 4.40608C-400.964 -1.55817 -378.385 -0.357926 -355.41 6.69864C-352.369 7.6324 -349.375 8.65505 -346.427 9.76368C-313.087 22.2801 -283.61 46.1917 -257.577 76.6063C-229.143 109.826 -203.392 152.458 -179.962 201.318C-133.113 299.016 -93.626 425.72 -60.8121 562.543C-53.9934 590.975 -47.4488 619.904 -41.1754 649.171C-24.9943 710.606 -9.7039 774.945 3.92222 840.971C17.6763 855.311 70.6181 870.372 89.3261 869.05C230.484 859.074 368.689 776.329 443.61 639.192C550.598 419.909 444.255 267.079 345.497 249.077C400.358 223.286 581.298 394.26 512.685 602.949C462.287 748.122 371.161 900.699 217.803 973.338L216.663 973.878L215.484 974.324C151.249 998.603 60.7085 1008.62 3.92221 1007C-3.49708 1130 -2.06482 1252.53 -3.49709 1375L-14.9971 1382.76C-15.5556 1405.42 -11.2092 1426.02 -14.9971 1442.3C-19.0811 1459.84 -20.3948 1471.35 -38.256 1483.5C-59.8126 1498.16 -20.6478 1501.46 -38.2563 1491.26C-55.3333 1481.37 -72.7423 1464.28 -90.7076 1442.3C-109.065 1419.83 -129.669 1390.15 -152.746 1352.81L-156.711 1346.4L-157.3 1338.88C-164.822 1242.99 -169.229 1131.56 -173.812 1015.69C-174.58 996.276 -175.353 976.736 -176.146 957.124C-176.359 951.851 -176.574 946.573 -176.79 941.29C-189.005 933.568 -200.911 925.258 -212.503 916.408C-324.951 830.556 -406.682 695.083 -457.762 557.657C-508.837 420.244 -530.903 276.466 -520.251 170.843C-514.985 118.63 -501.284 71.1695 -474.66 39.3583C-460.914 22.9334 -443.439 10.3952 -422.158 4.40608ZM-274.726 183.908C-301.02 146.308 -334.36 107.587 -365.637 86.9421C-385.676 73.7146 -398.687 71.9542 -406.138 73.9617C-412.34 75.6328 -424.887 82.8366 -436.729 115.43C-487.653 255.589 -437.175 377.303 -408.737 445.874C-402.226 461.574 -396.871 474.487 -394.152 484.199C-393.584 486.229 -390.544 494.043 -383.716 507.659C-377.249 520.555 -368.154 537.14 -356.585 556.051C-333.419 593.918 -300.752 640.425 -260.07 684.937C-237.281 709.872 -212.387 733.751 -185.61 755.057C-189.581 684.98 -194.48 615.889 -201.001 549.884C-213.797 420.356 -232.672 304.668 -262.178 217.584C-266.225 205.639 -270.409 194.418 -274.726 183.908Z" fill="#EFEFEE"/>
</svg>
